# xmcd CD database file
#
# Track frame offsets:
#	150
#	20854
#	43982
#	64269
#	87323
#	105193
#	123720
#	145655
#	168000
#	188756
#	212425
#	228176
#	247910
#	268018
#	284189
#	302761
#
# Disc length: 4327 seconds
#
# Revision: 0
# Processed by: cddbd v1.4PL0 Copyright (c) Steve Scherf et al.
# Submitted via: CDex 1.50
#
DISCID=e310e510
DTITLE=diverse artists - Hessen Jazz Idstein 2001
DYEAR=2001
DGENRE=Jazz
TTITLE0=Dr. Woogle And The Radio - Revolution
TTITLE1=Orquestra Salsamania - Amor Artificial
TTITLE2=Hootin´The Blues - I Can´t Be Satisfied
TTITLE3=2 Strings´n Tom - Now She´s Blond
TTITLE4=Jonathan´s Dixie Drivers - Blues My Naughty Sweetie
TTITLE5=Big Band Boden - Hay Burner
TTITLE6=Garcia Orchestra - Jungle 7
TTITLE7=La Ritma - Masala Music
TTITLE8=Franz and Friends - Almost A Single Blues
TTITLE9=Apollo Big Band - Home At Last
TTITLE10=Dixielanders - Clarinet Marmelade
TTITLE11=Steve Edwards And The Mobile Blues Band - Thrill is gone
TTITLE12=Blue Project - El Chaparron
TTITLE13=Nuages - Sertao
TTITLE14=Maxine - Don´t Let Me Be Lonely Tonight
TTITLE15=Griesheim Connexion II - Springtime
EXTD=YEAR: 2001
EXTT0=
EXTT1=
EXTT2=
EXTT3=
EXTT4=
EXTT5=
EXTT6=
EXTT7=
EXTT8=
EXTT9=
EXTT10=
EXTT11=
EXTT12=
EXTT13=
EXTT14=
EXTT15=
PLAYORDER=
